<svg width="174" height="39" viewBox="0 0 174 39" fill="none" xmlns="http://www.w3.org/2000/svg">
<path d="M7.3349 21.5593C9.04216 20.4915 10.8759 20.6441 12.7096 22.322C14.733 24.1525 19.918 26.7458 25.7354 14.0848L26.6838 11.7966L26.7471 11.6441L27 11.0339L26.8735 10.2712C26.8103 9.66104 26.6838 8.89834 26.5574 8.13563L26.2412 6L25.6089 7.52542C25.5457 7.83051 25.4192 7.98305 25.2927 8.28813C22.5105 15.1525 18.2108 22.1695 13.2787 17.8983C11.0656 15.9153 8.78923 15.6102 6.70258 16.9831C4.67916 18.3559 2.90866 20.9492 1.26464 24.6102V24.4576L0.316159 26.8983C0.316159 27.0509 0.252939 27.0509 0.189707 27.2034L0 27.661L0.0632357 28.2712C0.126468 29.0339 0.252927 29.7966 0.316159 30.5593L0.695554 33L1.32787 31.017C1.3911 30.7119 1.51756 30.5593 1.5808 30.2543C2.90866 27.356 4.74239 23.2373 7.3349 21.5593Z" fill="#39BE00"/>
<path d="M40.1158 30V18.492H37.3998V15.86H41.0958L40.1158 16.756V14.6C40.1158 12.8453 40.5544 11.52 41.4318 10.624C42.3278 9.728 43.6251 9.28 45.3238 9.28C45.7344 9.28 46.1638 9.308 46.6118 9.364C47.0784 9.42 47.4798 9.52267 47.8158 9.672V12.416C47.5731 12.3227 47.2838 12.248 46.9478 12.192C46.6118 12.136 46.2851 12.108 45.9678 12.108C45.2398 12.108 44.6611 12.3227 44.2318 12.752C43.8024 13.1627 43.5878 13.8347 43.5878 14.768V16.476L43.0838 15.86H52.9118V30H49.4118V18.492H43.6158V30H40.1158ZM49.2158 13.2V9.784H53.1078V13.2H49.2158ZM56.7185 30V19.388C56.7185 18.8093 56.6998 18.2213 56.6625 17.624C56.6251 17.0267 56.5691 16.4387 56.4945 15.86H59.8825L60.1625 18.66H59.8265C60.2745 17.6707 60.9371 16.9147 61.8145 16.392C62.6918 15.8507 63.7091 15.58 64.8665 15.58C66.5278 15.58 67.7785 16.0467 68.6185 16.98C69.4585 17.9133 69.8785 19.3693 69.8785 21.348V30H66.3785V21.516C66.3785 20.3773 66.1545 19.5653 65.7065 19.08C65.2771 18.576 64.6238 18.324 63.7465 18.324C62.6638 18.324 61.8051 18.66 61.1705 19.332C60.5358 20.004 60.2185 20.9 60.2185 22.02V30H56.7185ZM71.6855 30L80.6175 10.26H83.6415L92.6855 30H89.0175L86.6095 24.456L88.0655 25.436H76.2215L77.7335 24.456L75.3255 30H71.6855ZM82.1015 14.124L78.1535 23.476L77.4255 22.608H86.8335L86.2455 23.476L82.2135 14.124H82.1015ZM94.8695 30V10.26H98.4815V30H94.8695ZM109.043 30.28C107.587 30.28 106.308 29.9813 105.207 29.384C104.124 28.7867 103.284 27.9373 102.687 26.836C102.089 25.716 101.791 24.3907 101.791 22.86C101.791 21.3293 102.089 20.0227 102.687 18.94C103.303 17.8573 104.152 17.0267 105.235 16.448C106.317 15.8693 107.587 15.58 109.043 15.58C109.976 15.58 110.881 15.7293 111.759 16.028C112.655 16.308 113.383 16.7187 113.943 17.26L112.879 19.696C112.375 19.2293 111.805 18.884 111.171 18.66C110.555 18.4173 109.948 18.296 109.351 18.296C108.1 18.296 107.12 18.688 106.411 19.472C105.72 20.256 105.375 21.3947 105.375 22.888C105.375 24.3813 105.72 25.5293 106.411 26.332C107.12 27.1347 108.1 27.536 109.351 27.536C109.929 27.536 110.527 27.424 111.143 27.2C111.777 26.976 112.356 26.6307 112.879 26.164L113.943 28.572C113.364 29.1133 112.627 29.5333 111.731 29.832C110.853 30.1307 109.957 30.28 109.043 30.28ZM123.215 30.28C120.844 30.28 118.987 29.6267 117.643 28.32C116.299 27.0133 115.627 25.2213 115.627 22.944C115.627 21.4693 115.916 20.1813 116.495 19.08C117.073 17.9787 117.876 17.12 118.903 16.504C119.948 15.888 121.161 15.58 122.543 15.58C123.905 15.58 125.044 15.8693 125.959 16.448C126.873 17.0267 127.564 17.8387 128.031 18.884C128.516 19.9293 128.759 21.152 128.759 22.552V23.476H118.455V21.628H126.267L125.791 22.02C125.791 20.7133 125.511 19.7147 124.951 19.024C124.409 18.3333 123.616 17.988 122.571 17.988C121.413 17.988 120.517 18.3987 119.883 19.22C119.267 20.0413 118.959 21.1893 118.959 22.664V23.028C118.959 24.5587 119.332 25.7067 120.079 26.472C120.844 27.2187 121.917 27.592 123.299 27.592C124.101 27.592 124.848 27.4893 125.539 27.284C126.248 27.06 126.92 26.7053 127.555 26.22L128.591 28.572C127.919 29.1133 127.116 29.5333 126.183 29.832C125.249 30.1307 124.26 30.28 123.215 30.28ZM131.722 30V15.86H135.222V30H131.722ZM131.526 13.2V9.784H135.418V13.2H131.526ZM138.995 30V19.472C138.995 18.8747 138.976 18.268 138.939 17.652C138.92 17.036 138.874 16.4387 138.799 15.86H142.187L142.579 19.724H142.019C142.206 18.7907 142.514 18.016 142.943 17.4C143.391 16.784 143.932 16.3267 144.567 16.028C145.202 15.7293 145.892 15.58 146.639 15.58C146.975 15.58 147.246 15.5987 147.451 15.636C147.656 15.6547 147.862 15.7013 148.067 15.776L148.039 18.856C147.684 18.7067 147.376 18.6133 147.115 18.576C146.872 18.5387 146.564 18.52 146.191 18.52C145.388 18.52 144.707 18.688 144.147 19.024C143.606 19.36 143.195 19.8267 142.915 20.424C142.654 21.0213 142.523 21.7027 142.523 22.468V30H138.995ZM156.181 30.28C154.725 30.28 153.465 29.9813 152.401 29.384C151.337 28.7867 150.506 27.9373 149.909 26.836C149.33 25.7347 149.041 24.428 149.041 22.916C149.041 21.404 149.33 20.1067 149.909 19.024C150.506 17.9227 151.337 17.0733 152.401 16.476C153.465 15.8787 154.725 15.58 156.181 15.58C157.637 15.58 158.897 15.8787 159.961 16.476C161.043 17.0733 161.874 17.9227 162.453 19.024C163.05 20.1067 163.349 21.404 163.349 22.916C163.349 24.428 163.05 25.7347 162.453 26.836C161.874 27.9373 161.043 28.7867 159.961 29.384C158.897 29.9813 157.637 30.28 156.181 30.28ZM156.181 27.592C157.282 27.592 158.159 27.2093 158.813 26.444C159.466 25.66 159.793 24.484 159.793 22.916C159.793 21.348 159.466 20.1813 158.813 19.416C158.159 18.6507 157.282 18.268 156.181 18.268C155.079 18.268 154.202 18.6507 153.549 19.416C152.895 20.1813 152.569 21.348 152.569 22.916C152.569 24.484 152.895 25.66 153.549 26.444C154.202 27.2093 155.079 27.592 156.181 27.592Z" fill="white"/>
</svg>
